<?xml version="1.0" encoding="UTF-8" standalone="no"?>
<svg
   width="16"
   height="16"
   fill="currentColor"
   class="bi bi-globe"
   viewBox="0 0 16 16"
   version="1.1"
   id="svg1"
   xmlns:xlink="http://www.w3.org/1999/xlink"
   xmlns="http://www.w3.org/2000/svg"
   xmlns:svg="http://www.w3.org/2000/svg">
  <defs
     id="defs1">
    <linearGradient
       id="linearGradient2">
      <stop
         style="stop-color:#00ffff;stop-opacity:1;"
         offset="0"
         id="stop2" />
      <stop
         style="stop-color:#0000ff;stop-opacity:1"
         offset="1"
         id="stop3" />
    </linearGradient>
    <linearGradient
       xlink:href="#linearGradient2"
       id="linearGradient3"
       x1="0"
       y1="3.4729399e-06"
       x2="16"
       y2="16"
       gradientUnits="userSpaceOnUse" />
  </defs>
  <path
     d="M 0,8 C 0,3.581719 3.5817221,3.4729399e-6 8,3.4729399e-6 12.418278,3.4729399e-6 16,3.581719 16,8 16,12.418281 12.418278,15.999997 8,15.999997 3.5817221,15.999997 0,12.418281 0,8 M 7.5,1.077 C 6.83,1.281 6.165,1.897 5.613,2.932 5.4312288,3.276142 5.2748134,3.6330899 5.145,4 H 7.5 Z M 4.09,4 C 4.2568401,3.4688784 4.4710334,2.9538104 4.73,2.461 4.9040432,2.134719 5.103668,1.8227425 5.327,1.528 4.0881471,2.0420691 3.0222119,2.8998139 2.255,4 Z M 3.508,7.5 C 3.538,6.623 3.646,5.782 3.82,5 H 1.674 C 1.302048,5.7853895 1.07959,6.6331715 1.018,7.5 Z M 4.847,5 C 4.6503149,5.8198028 4.5370717,6.6574007 4.509,7.5 H 7.5 V 5 Z M 8.5,5 v 2.5 h 2.99 C 11.462256,6.6574348 11.349348,5.8198373 11.153,5 Z M 4.51,8.5 c 0.027744,0.8425652 0.1406519,1.680163 0.337,2.5 H 7.5 V 8.5 Z m 3.99,0 V 11 h 2.653 C 11.34,10.235 11.459,9.392 11.491,8.5 Z M 5.145,12 c 0.1386667,0.386667 0.2946667,0.742667 0.468,1.068 0.552,1.035 1.218,1.65 1.887,1.855 V 12 Z m 0.182,2.472 C 5.103668,14.177257 4.9040432,13.865281 4.73,13.539 4.4710334,13.04619 4.2568401,12.531122 4.09,12 H 2.255 c 0.765971,1.101344 1.8322816,1.959391 3.072,2.472 M 3.82,11 C 3.6394342,10.178018 3.5349927,9.3411474 3.508,8.5 H 1.018 C 1.08,9.39 1.309,10.233 1.674,11 Z m 6.853,3.472 C 11.912718,13.959391 12.979029,13.101344 13.745,12 H 11.91 c -0.16684,0.531122 -0.381033,1.04619 -0.64,1.539 -0.174043,0.326281 -0.373668,0.638257 -0.597,0.933 M 8.5,12 v 2.923 c 0.67,-0.204 1.335,-0.82 1.887,-1.855 0.173333,-0.324667 0.329333,-0.680667 0.468,-1.068 z m 3.68,-1 h 2.146 c 0.365,-0.767 0.594,-1.61 0.656,-2.5 h -2.49 C 12.465007,9.3411474 12.360566,10.178018 12.18,11 M 14.982,7.5 C 14.92041,6.6331715 14.697952,5.7853895 14.326,5 H 12.18 c 0.174,0.782 0.282,1.623 0.312,2.5 z M 11.27,2.461 c 0.247,0.464 0.462,0.98 0.64,1.539 h 1.835 C 12.979029,2.8986561 11.912718,2.0406093 10.673,1.528 10.891,1.812 11.091,2.126 11.27,2.461 M 10.855,4 C 10.725187,3.6330899 10.568771,3.276142 10.387,2.932 9.835,1.897 9.17,1.282 8.5,1.077 V 4 Z"
     id="path1"
     style="fill:url(#linearGradient3)" />
</svg>
